<?xml version="1.0" encoding="UTF-8" standalone="no"?>
<!-- Created with Inkscape (http://www.inkscape.org/) -->

<svg
   xmlns:dc="http://purl.org/dc/elements/1.1/"
   xmlns:cc="http://creativecommons.org/ns#"
   xmlns:rdf="http://www.w3.org/1999/02/22-rdf-syntax-ns#"
   xmlns:svg="http://www.w3.org/2000/svg"
   xmlns="http://www.w3.org/2000/svg"
   xmlns:xlink="http://www.w3.org/1999/xlink"
   xmlns:sodipodi="http://sodipodi.sourceforge.net/DTD/sodipodi-0.dtd"
   xmlns:inkscape="http://www.inkscape.org/namespaces/inkscape"
   width="473.9548"
   height="412.6976"
   id="svg2"
   sodipodi:version="0.32"
   inkscape:version="0.47pre4 r22446"
   version="1.0"
   sodipodi:docname="Fiat_45-66_interior.svg"
   inkscape:output_extension="org.inkscape.output.svg.inkscape"
   inkscape:export-filename="/home/biffen/Documents/Scout/Fordonskommitén/Traktorarbete Vässarö/src/img/Fiat_45-66_interior.png"
   inkscape:export-xdpi="179.91382"
   inkscape:export-ydpi="179.91382">
  <defs
     id="defs4">
    <linearGradient
       inkscape:collect="always"
       id="linearGradient4134">
      <stop
         style="stop-color:#b3b3b3;stop-opacity:1;"
         offset="0"
         id="stop4136" />
      <stop
         style="stop-color:#b3b3b3;stop-opacity:0;"
         offset="1"
         id="stop4138" />
    </linearGradient>
    <linearGradient
       inkscape:collect="always"
       id="linearGradient4126">
      <stop
         style="stop-color:#000000;stop-opacity:1;"
         offset="0"
         id="stop4128" />
      <stop
         style="stop-color:#000000;stop-opacity:0;"
         offset="1"
         id="stop4130" />
    </linearGradient>
    <marker
       inkscape:stockid="DotS"
       orient="auto"
       refY="0"
       refX="0"
       id="DotS"
       style="overflow:visible">
      <path
         id="path3343"
         d="M -2.5,-1 C -2.5,1.76 -4.74,4 -7.5,4 C -10.26,4 -12.5,1.76 -12.5,-1 C -12.5,-3.76 -10.26,-6 -7.5,-6 C -4.74,-6 -2.5,-3.76 -2.5,-1 z"
         style="fill-rule:evenodd;stroke:#000000;stroke-width:1pt;marker-start:none;marker-end:none"
         transform="matrix(0.2,0,0,0.2,1.48,0.2)" />
    </marker>
    <marker
       inkscape:stockid="DotL"
       orient="auto"
       refY="0"
       refX="0"
       id="DotL"
       style="overflow:visible">
      <path
         id="path3337"
         d="M -2.5,-1 C -2.5,1.76 -4.74,4 -7.5,4 C -10.26,4 -12.5,1.76 -12.5,-1 C -12.5,-3.76 -10.26,-6 -7.5,-6 C -4.74,-6 -2.5,-3.76 -2.5,-1 z"
         style="fill-rule:evenodd;stroke:#000000;stroke-width:1pt;marker-start:none;marker-end:none"
         transform="matrix(0.8,0,0,0.8,5.92,0.8)" />
    </marker>
    <inkscape:perspective
       sodipodi:type="inkscape:persp3d"
       inkscape:vp_x="0 : 526.18109 : 1"
       inkscape:vp_y="0 : 1000 : 0"
       inkscape:vp_z="744.09448 : 526.18109 : 1"
       inkscape:persp3d-origin="372.04724 : 350.78739 : 1"
       id="perspective10" />
    <inkscape:perspective
       id="perspective2410"
       inkscape:persp3d-origin="372.04724 : 350.78739 : 1"
       inkscape:vp_z="744.09448 : 526.18109 : 1"
       inkscape:vp_y="0 : 1000 : 0"
       inkscape:vp_x="0 : 526.18109 : 1"
       sodipodi:type="inkscape:persp3d" />
    <linearGradient
       inkscape:collect="always"
       xlink:href="#linearGradient4126"
       id="linearGradient4132"
       x1="-23.744804"
       y1="374.8945"
       x2="-23.744804"
       y2="380.11014"
       gradientUnits="userSpaceOnUse"
       gradientTransform="matrix(1.5338098,0,0,1.5228845,200.55179,0.4304981)" />
    <linearGradient
       inkscape:collect="always"
       xlink:href="#linearGradient4134"
       id="linearGradient4140"
       x1="-35.135433"
       y1="374.80554"
       x2="-35.135433"
       y2="379.90463"
       gradientUnits="userSpaceOnUse"
       gradientTransform="matrix(1.5338098,0,0,1.5228845,200.55179,0.4304981)" />
  </defs>
  <sodipodi:namedview
     id="base"
     pagecolor="#ffffff"
     bordercolor="#666666"
     borderopacity="1.0"
     gridtolerance="10000"
     guidetolerance="10"
     objecttolerance="10"
     inkscape:pageopacity="0.0"
     inkscape:pageshadow="2"
     inkscape:zoom="1.482926"
     inkscape:cx="236.9774"
     inkscape:cy="206.3488"
     inkscape:document-units="px"
     inkscape:current-layer="layer3"
     showgrid="false"
     inkscape:object-paths="true"
     inkscape:object-nodes="true"
     inkscape:window-width="1440"
     inkscape:window-height="871"
     inkscape:window-x="0"
     inkscape:window-y="0"
     inkscape:window-maximized="1" />
  <metadata
     id="metadata7">
    <rdf:RDF>
      <cc:Work
         rdf:about="">
        <dc:format>image/svg+xml</dc:format>
        <dc:type
           rdf:resource="http://purl.org/dc/dcmitype/StillImage" />
        <dc:title />
      </cc:Work>
    </rdf:RDF>
  </metadata>
  <g
     inkscape:label="Layer 1"
     inkscape:groupmode="layer"
     id="layer1"
     style="display:inline"
     transform="translate(-123.65366,-172.9375)"
     sodipodi:insensitive="true">
    <path
       style="fill:url(#linearGradient4140);fill-opacity:1;fill-rule:evenodd;stroke:url(#linearGradient4132);stroke-width:1px;stroke-linecap:round;stroke-linejoin:round;stroke-opacity:1"
       d="m 155.69137,561.3995 -8.26375,20.80526 7.96863,2.93033 7.96862,-20.21921 -7.6735,-3.51638 z"
       id="path4124" />
    <path
       style="fill:#333333;fill-rule:evenodd;stroke:#000000;stroke-width:1px;stroke-linecap:round;stroke-linejoin:round;stroke-opacity:1"
       d="m 175.17024,505.28385 1.3281,-4.54199 6.19782,1.90471 -1.62323,4.542 -5.90269,-1.90472 z"
       id="path4122" />
    <path
       style="fill:#b3b3b3;fill-rule:evenodd;stroke:#000000;stroke-width:1px;stroke-linecap:round;stroke-linejoin:round;stroke-opacity:1"
       d="m 544.53704,492.15126 c 7.64227,5.64309 5.57533,9.39828 6.01832,13.64151 0,1.92413 -4.33319,1.88137 -4.33319,0 0.92681,-6.7393 -1.8611,-8.47068 -3.93196,-9.78979 l 2.24683,-3.85172 z"
       id="path5263"
       sodipodi:nodetypes="ccccc" />
    <path
       style="fill:#ff2a2a;fill-rule:evenodd;stroke:#000000;stroke-width:1px;stroke-linecap:round;stroke-linejoin:round;stroke-opacity:1"
       d="m 268.86966,273.23423 2.42209,72.69795 c 3.05206,14.07918 7.61845,29.67269 17.08675,50.1681 3.88482,6.51833 9.10937,8.5709 14.74392,9.25679 l 4.76492,9.70598 127.82472,0 4.76492,-9.70598 c 6.28619,-0.89111 11.39102,-3.6724 14.74392,-9.25679 6.74127,-15.04961 13.23323,-30.4981 17.08675,-50.1681 l 2.42209,-72.69795 -205.86008,0 z"
       id="path5199"
       sodipodi:nodetypes="ccccccccccc" />
    <path
       style="fill:#b3b3b3;fill-rule:evenodd;stroke:#000000;stroke-width:1px;stroke-linecap:round;stroke-linejoin:round;stroke-opacity:1"
       d="m 508.74683,424.49251 -18.24432,-7.70665 c -2.52645,-1.24768 -4.39493,3.21735 -1.88734,4.87563 l 2.35918,12.73957 16.35697,0.31456 1.41551,-10.22311 z"
       id="path5186"
       sodipodi:nodetypes="cccccc" />
    <path
       style="fill:#b3b3b3;fill-rule:evenodd;stroke:#000000;stroke-width:1px;stroke-linecap:round;stroke-linejoin:round;stroke-opacity:1"
       d="m 515.08743,445.9274 -6.29115,16.04242 1.88735,8.8076 4.08924,0 7.23482,-16.82881 13.99779,-5.03292 1.10095,-3.14557 -22.019,0.15728 z"
       id="path5190" />
    <path
       style="fill:#b3b3b3;fill-rule:evenodd;stroke:#000000;stroke-width:1px;stroke-linecap:round;stroke-linejoin:round;stroke-opacity:1"
       d="m 451.86143,447.50019 6.29114,5.03291 -2.51645,10.38039 1.25822,7.54937 4.08925,0.15728 3.77469,-17.14337 2.2019,-1.88734 0.94367,-6.29114 -16.1997,-1.10095 0.15728,3.30285 z"
       id="path5188" />
    <path
       style="fill:#b3b3b3;fill-rule:evenodd;stroke:#000000;stroke-width:1px;stroke-linecap:round;stroke-linejoin:round;stroke-opacity:1"
       d="m 274.76572,457.25146 c 4.20015,2.16557 8.58417,3.22791 11.16678,15.09875 l 5.1902,0.15727 1.57278,-5.03291 c -1.21975,-8.15339 -4.26173,-13.02675 -7.54937,-17.45793 l -10.38039,7.23482 z"
       id="path5178"
       sodipodi:nodetypes="cccccc" />
    <path
       style="fill:#ff2a2a;fill-opacity:1;fill-rule:evenodd;stroke:#000000;stroke-width:1;stroke-linecap:round;stroke-linejoin:round;stroke-miterlimit:4;stroke-opacity:1;stroke-dashoffset:0"
       d="m 485.03674,228.61331 30.27534,-0.39241 0,24.03959 c 0,2.77 -2.23,5 -5,5 l -25.27534,0 c -2.77,0 -5,-2.23 -5,-5 l 0,-18.64718 c 0,-2.77 2.23,-5 5,-5 z"
       id="rect5160"
       sodipodi:nodetypes="cccccccc" />
    <path
       style="fill:#b3b3b3;fill-rule:evenodd;stroke:#000000;stroke-width:1px;stroke-linecap:round;stroke-linejoin:round;stroke-opacity:1"
       d="m 276.15731,207.14693 188.1575,1.1579 c 5.53759,0.29631 10.40104,2.73028 10.89702,9.63109 l 2.98081,41.47313 -13.45586,71.59354 c -0.92263,4.90896 -2.00543,6.97233 -5.78946,6.94736 l -175.42068,-1.1579 c -8.27068,-0.0546 -6.45311,-2.64044 -6.9963,-6.31946 l -10.63202,-72.01044 0.99586,-43.78892 c 0.0801,-3.52174 2.37036,-7.56872 9.26313,-7.5263 z"
       id="path2428"
       sodipodi:nodetypes="csscsssscss" />
    <path
       style="fill:#808080;fill-opacity:1;fill-rule:evenodd;stroke:#000000;stroke-width:1.4000001;stroke-linecap:round;stroke-linejoin:round;stroke-miterlimit:4;stroke-opacity:1;stroke-dasharray:none;stroke-dashoffset:0"
       d="m 415.21875,352.46875 c -3.19045,0.24865 -5.6875,2.33249 -5.6875,4.84375 l 0,4.21875 c 0,2.67868 2.81856,4.84375 6.3125,4.84375 3.49393,0 6.34374,-2.16506 6.34375,-4.84375 l 0,-4.21875 c 0,-2.67868 -2.84982,-4.84376 -6.34375,-4.84375 -0.21837,0 -0.4123,-0.0166 -0.625,0 z"
       id="path2430"
       sodipodi:nodetypes="cccsccsc" />
    <path
       sodipodi:type="arc"
       style="fill:#b3b3b3;fill-opacity:1;fill-rule:evenodd;stroke:#000000;stroke-width:1.60081863;stroke-linecap:round;stroke-linejoin:round;stroke-miterlimit:4;stroke-opacity:1;stroke-dasharray:none;stroke-dashoffset:0"
       id="path2446"
       sodipodi:cx="415.81024"
       sodipodi:cy="360.96323"
       sodipodi:rx="4.228951"
       sodipodi:ry="3.0756006"
       d="m 420.03919,360.96323 a 4.228951,3.0756006 0 1 1 -8.4579,0 4.228951,3.0756006 0 1 1 8.4579,0 z"
       transform="matrix(0.8831169,0,0,0.8660714,48.930725,48.645358)" />
    <path
       style="fill:#cccccc;fill-opacity:1;fill-rule:evenodd;stroke:#000000;stroke-width:1.4000001;stroke-linecap:round;stroke-linejoin:round;stroke-miterlimit:4;stroke-opacity:1;stroke-dasharray:none;stroke-dashoffset:0"
       d="m 414.82953,359.53406 0,7.375 2.96875,0 0,-4.9375 -2.625,-2.4375 -0.34375,0 z"
       id="rect2440" />
    <path
       sodipodi:type="arc"
       style="fill:#333333;fill-opacity:1;fill-rule:evenodd;stroke:#000000;stroke-width:1.4000001;stroke-linecap:round;stroke-linejoin:round;stroke-miterlimit:4;stroke-opacity:1;stroke-dasharray:none;stroke-dashoffset:0"
       id="path2438"
       sodipodi:cx="416.44183"
       sodipodi:cy="366.75742"
       sodipodi:rx="2.8284543"
       sodipodi:ry="5.0253119"
       d="m 419.27029,366.75742 a 2.8284543,5.0253119 0 1 1 -5.65691,0 2.8284543,5.0253119 0 1 1 5.65691,0 z"
       transform="matrix(0.8484983,-0.5291981,0.5291981,0.8484983,-131.16045,276.54873)" />
    <rect
       style="fill:#cccccc;fill-opacity:1;fill-rule:evenodd;stroke:#000000;stroke-width:1;stroke-linecap:round;stroke-linejoin:round;stroke-miterlimit:4;stroke-opacity:1;stroke-dasharray:none;stroke-dashoffset:0"
       id="rect3268"
       width="143.31992"
       height="38.128223"
       x="299.29898"
       y="222.84985"
       rx="5"
       ry="5" />
    <rect
       style="fill:#b3b3b3;fill-opacity:1;fill-rule:evenodd;stroke:#000000;stroke-width:1;stroke-linecap:round;stroke-linejoin:round;stroke-miterlimit:4;stroke-opacity:1;stroke-dasharray:none;stroke-dashoffset:0"
       id="rect5265"
       width="12.271646"
       height="32.509098"
       x="302.37778"
       y="225.65942"
       rx="2"
       ry="1.9999999" />
    <path
       style="fill:#b3b3b3;fill-rule:evenodd;stroke:#000000;stroke-width:1px;stroke-linecap:round;stroke-linejoin:round;stroke-opacity:1"
       d="m 88.4375,48.125 -2.65625,7.65625 72.375,67.375 2.25,1.875 c 1.66542,4.58361 6.01861,8.26569 11.65625,9.96875 l 2.78125,42.5 6.46875,0 2.75,-42 c 7.44127,-1.55259 13.11598,-6.46588 14.1875,-12.53125 L 270.375,55.78125 267.71875,48.125 198.90625,105.1875 197.75,101 c 0.005,-0.1454 0.0312,-0.29111 0.0312,-0.4375 0,-8.354687 -8.69978,-15.124997 -19.40625,-15.125 -9.25306,0 -16.97362,5.075485 -18.90625,11.84375 l -0.0625,0 L 157.25,105.1875 88.4375,48.125 z"
       transform="translate(193.65366,172.9375)"
       id="path2448" />
    <rect
       style="fill:#b3b3b3;fill-opacity:1;fill-rule:evenodd;stroke:#000000;stroke-width:1.00334764;stroke-linecap:round;stroke-linejoin:round;stroke-miterlimit:4;stroke-opacity:1;stroke-dasharray:none;stroke-dashoffset:0"
       id="rect3225"
       width="43.54073"
       height="23.667557"
       x="327.90167"
       y="291.25073"
       ry="2"
       rx="2"
       transform="matrix(1,0,-0.1152344,0.9933383,0,0)" />
    <g
       id="g3233"
       transform="translate(0.3767514,-2.0875029e-6)"
       style="fill:#333333;stroke-linecap:round;stroke-linejoin:round">
      <rect
         style="fill:#333333;fill-opacity:1;fill-rule:evenodd;stroke:#000000;stroke-width:1.00303352;stroke-linecap:round;stroke-linejoin:round;stroke-miterlimit:4;stroke-opacity:1;stroke-dasharray:none;stroke-dashoffset:0"
         id="rect3227"
         width="10.172813"
         height="17.133081"
         x="328.88422"
         y="294.32831"
         ry="2"
         rx="2"
         transform="matrix(1,0,-0.1097406,0.9939603,0,0)" />
      <rect
         transform="matrix(1,0,-0.1097406,0.9939603,0,0)"
         rx="2"
         ry="2"
         y="294.32831"
         x="342.52298"
         height="17.133081"
         width="10.172813"
         id="rect3229"
         style="fill:#333333;fill-opacity:1;fill-rule:evenodd;stroke:#000000;stroke-width:1.00303352;stroke-linecap:round;stroke-linejoin:round;stroke-miterlimit:4;stroke-opacity:1;stroke-dasharray:none;stroke-dashoffset:0" />
      <rect
         style="fill:#333333;fill-opacity:1;fill-rule:evenodd;stroke:#000000;stroke-width:1.00303352;stroke-linecap:round;stroke-linejoin:round;stroke-miterlimit:4;stroke-opacity:1;stroke-dasharray:none;stroke-dashoffset:0"
         id="rect3231"
         width="10.172813"
         height="17.133081"
         x="356.16174"
         y="294.32831"
         ry="2"
         rx="2"
         transform="matrix(1,0,-0.1097406,0.9939603,0,0)" />
    </g>
    <path
       sodipodi:type="arc"
       style="fill:#b3b3b3;fill-opacity:1;fill-rule:evenodd;stroke:#000000;stroke-width:1;stroke-linecap:round;stroke-linejoin:round;stroke-miterlimit:4;stroke-opacity:1;stroke-dasharray:none;stroke-dashoffset:0"
       id="path3261"
       sodipodi:cx="311.32767"
       sodipodi:cy="270.82614"
       sodipodi:rx="5.9205313"
       sodipodi:ry="4.075171"
       d="m 317.2482,270.82614 a 5.9205313,4.075171 0 1 1 -11.84106,0 5.9205313,4.075171 0 1 1 11.84106,0 z" />
    <path
       style="fill:#333333;fill-opacity:1;fill-rule:evenodd;stroke:#000000;stroke-width:0.99999994;stroke-linecap:round;stroke-linejoin:round;stroke-miterlimit:4;stroke-opacity:1;stroke-dasharray:none;stroke-dashoffset:0"
       d="m 310.84375,266.4375 c -1.65529,0 -3.00001,0.77502 -3,1.71875 l 0.21875,2.59375 c 0,0.94371 1.34472,1.71875 3,1.71875 1.65529,0 3,-0.77504 3,-1.71875 l -0.21875,-2.59375 c 0,-0.94371 -1.3447,-1.71876 -3,-1.71875 z"
       id="path3263"
       sodipodi:nodetypes="cccsccc" />
    <path
       sodipodi:type="arc"
       style="fill:none;stroke:#ffffff;stroke-width:1.11530399;stroke-linecap:round;stroke-linejoin:round;stroke-miterlimit:4;stroke-opacity:1;stroke-dasharray:1.11530403, 3.3459121;stroke-dashoffset:0;marker-start:none"
       id="path3270"
       sodipodi:cx="371.07123"
       sodipodi:cy="252.75699"
       sodipodi:rx="20.452745"
       sodipodi:ry="20.452745"
       d="m 352.17535,260.58391 a 20.452745,20.452745 0 1 1 37.79175,10e-6"
       transform="matrix(0.8966165,0,0,0.8966165,38.439515,23.708855)"
       sodipodi:start="2.7488936"
       sodipodi:end="6.6758844"
       sodipodi:open="true" />
    <path
       style="fill:none;stroke:#000000;stroke-width:1px;stroke-linecap:round;stroke-linejoin:round;stroke-opacity:1"
       d="m 370.91742,250.2965 -16.80267,7.28724"
       id="path5098" />
    <path
       style="fill:#ffffff;fill-opacity:1;fill-rule:evenodd;stroke:none"
       d="m 405.4375,236.75 1.40625,2.8125 10.34375,0 1.40625,-2.8125 -13.15625,0 z m 1,0.53125 11.125,0.15625 -10.15625,1.625 -0.96875,-1.78125 z"
       id="rect5102" />
    <path
       style="fill:#ff0000;fill-opacity:1;fill-rule:evenodd;stroke:none"
       d="m 406.4375,237.28125 0.96875,1.78125 2.3125,-0.375 -0.34375,-1.375 -2.9375,-0.0312 z"
       id="path5109" />
    <path
       style="fill:none;stroke:#000000;stroke-width:1px;stroke-linecap:round;stroke-linejoin:round;stroke-opacity:1"
       d="M 411.59654,248.08735 405.4375,236.75"
       id="path5107" />
    <path
       id="path5117"
       d="m 323.93408,235.36598 1.40625,2.8125 10.34375,0 1.40625,-2.8125 -13.15625,0 z m 2.26095,0.53125 9.86405,0.15625 -0.9375,1.625 -7.9578,0 -0.96875,-1.78125 z"
       style="fill:#ffffff;fill-opacity:1;fill-rule:evenodd;stroke:none"
       sodipodi:nodetypes="cccccccccc" />
    <path
       style="fill:#00aa00;fill-opacity:1;fill-rule:evenodd;stroke:none"
       d="m 326.1875,235.90625 0.96875,1.78125 6.75,0 0.71875,-1.65625 -8.4375,-0.125 z"
       id="path5121" />
    <path
       style="fill:#ff0000;fill-rule:evenodd;stroke:none"
       d="m 334.625,236.03125 -0.71875,1.65625 1.21875,0 0.9375,-1.625 -1.4375,-0.0312 z"
       id="path5126" />
    <path
       style="fill:none;stroke:#000000;stroke-width:1px;stroke-linecap:round;stroke-linejoin:round;stroke-opacity:1"
       d="m 330.31324,248.15458 -6.37916,-12.7886"
       id="path5134" />
    <path
       sodipodi:type="arc"
       style="fill:#b3b3b3;fill-opacity:1;fill-rule:evenodd;stroke:#000000;stroke-width:1;stroke-linecap:round;stroke-linejoin:round;stroke-miterlimit:4;stroke-opacity:1;stroke-dasharray:none;stroke-dashoffset:0"
       id="path5143"
       sodipodi:cx="394.84561"
       sodipodi:cy="480.02698"
       sodipodi:rx="11.453537"
       sodipodi:ry="8.6655045"
       d="m 406.29915,480.02698 a 11.453537,8.6655045 0 1 1 -22.90708,0 11.453537,8.6655045 0 1 1 22.90708,0 z"
       transform="translate(0.7535222,-2.2605665)" />
    <path
       style="fill:#b3b3b3;fill-rule:evenodd;stroke:#000000;stroke-width:1px;stroke-linecap:round;stroke-linejoin:round;stroke-opacity:1"
       d="m 380.52869,422.83464 11.60424,53.80148 c 0.47334,2.93056 7.73482,1.88885 7.08311,-1.65775 l -11.00142,-53.95219 -7.68593,1.80846 z"
       id="path5141"
       sodipodi:nodetypes="ccccc" />
    <path
       style="fill:#333333;fill-opacity:1;fill-rule:evenodd;stroke:#000000;stroke-width:1;stroke-linecap:round;stroke-linejoin:round;stroke-miterlimit:4;stroke-opacity:1;stroke-dasharray:none;stroke-dashoffset:0"
       d="m 381.5625,399.28125 c -6.81317,0 -12.34374,4.019 -12.34375,8.96875 -0.10335,9.0139 4.42126,16.19822 13.78125,17.59375 10.89276,-0.61494 11.53087,-9.59014 10.90625,-17.59375 0,-4.94974 -5.5306,-8.96876 -12.34375,-8.96875 z"
       id="path5136"
       sodipodi:nodetypes="ccccc" />
    <path
       transform="translate(-57.11698,-4.6718375)"
       d="m 406.29915,480.02698 a 11.453537,8.6655045 0 1 1 -22.90708,0 11.453537,8.6655045 0 1 1 22.90708,0 z"
       sodipodi:ry="8.6655045"
       sodipodi:rx="11.453537"
       sodipodi:cy="480.02698"
       sodipodi:cx="394.84561"
       id="path5145"
       style="fill:#b3b3b3;fill-opacity:1;fill-rule:evenodd;stroke:#000000;stroke-width:1;stroke-linecap:round;stroke-linejoin:round;stroke-miterlimit:4;stroke-opacity:1;stroke-dasharray:none;stroke-dashoffset:0"
       sodipodi:type="arc" />
    <path
       sodipodi:nodetypes="ccccc"
       id="path5147"
       d="m 313.79834,423.24835 19.78062,51.36131 c 0.92062,2.82218 7.93382,0.67062 6.74176,-2.73263 l -19.20834,-51.60339 -7.31404,2.97471 z"
       style="fill:#b3b3b3;fill-rule:evenodd;stroke:#000000;stroke-width:1px;stroke-linecap:round;stroke-linejoin:round;stroke-opacity:1" />
    <path
       sodipodi:nodetypes="ccccc"
       id="path5149"
       d="m 310.42907,400.03068 c -6.66926,1.39296 -11.26132,6.45779 -10.24934,11.30299 1.74173,8.84463 7.6396,14.95213 17.0872,14.40452 10.53694,-2.82898 9.32659,-11.74506 7.07882,-19.4519 -1.01198,-4.84519 -7.24745,-7.64858 -13.91668,-6.25561 z"
       style="fill:#333333;fill-opacity:1;fill-rule:evenodd;stroke:#000000;stroke-width:1;stroke-linecap:round;stroke-linejoin:round;stroke-miterlimit:4;stroke-opacity:1;stroke-dasharray:none;stroke-dashoffset:0" />
    <path
       style="fill:#b3b3b3;fill-rule:evenodd;stroke:#000000;stroke-width:1px;stroke-linecap:round;stroke-linejoin:round;stroke-opacity:1"
       d="m 303.84375,107.78125 -95.65625,18.25 c -0.52251,-1.14759 -2.55814,-2 -4.96875,-2 -2.80429,0 -5.0625,1.16888 -5.0625,2.59375 l 0,4.84375 c 0,1.42488 2.25821,2.56251 5.0625,2.5625 2.80429,0 5.09375,-1.13762 5.09375,-2.5625 l 0,-0.78125 95.75,-17.21875 -0.21875,-5.6875 z"
       transform="translate(193.65366,172.9375)"
       id="path5151" />
    <path
       style="fill:#333333;fill-rule:evenodd;stroke:#000000;stroke-width:1px;stroke-linecap:round;stroke-linejoin:round;stroke-opacity:1"
       d="m 513.85598,275.97778 -17.19629,4.5888 c 0.70488,2.33925 1.01164,4.50788 0.28787,6.23485 l 17.44665,-0.59728 c 4.11069,0.01 3.0589,-10.71096 -0.53823,-10.22637 z"
       id="path5158"
       sodipodi:nodetypes="ccccc" />
    <path
       style="fill:#333333;fill-opacity:1;fill-rule:evenodd;stroke:#000000;stroke-width:1;stroke-linecap:round;stroke-linejoin:round;stroke-miterlimit:4;stroke-opacity:1;stroke-dasharray:none;stroke-dashoffset:0"
       d="m 371.625,173.4375 c -65.09809,0 -117.9375,42.31429 -117.9375,94.4375 0,52.12322 52.8394,94.43751 117.9375,94.4375 65.09809,0 117.93749,-42.31427 117.9375,-94.4375 0,-52.12322 -52.83941,-94.43749 -117.9375,-94.4375 z m 0,14.625 c 57.51292,0 104.1875,35.05286 104.1875,78.21875 10e-6,43.16591 -46.67458,78.1875 -104.1875,78.1875 -57.51292,0 -104.1875,-35.02161 -104.1875,-78.1875 -10e-6,-43.16588 46.67458,-78.21875 104.1875,-78.21875 z"
       id="path2418" />
    <path
       style="fill:#cccccc;fill-opacity:1;fill-rule:evenodd;stroke:#000000;stroke-width:1;stroke-linecap:round;stroke-linejoin:round;stroke-miterlimit:4;stroke-opacity:1;stroke-dasharray:none;stroke-dashoffset:0"
       d="m 504.1875,229 c 0,1.70535 -0.12501,11.4509 -0.125,13.15625 10e-6,1.70535 -1.86202,3.09375 -4.1875,3.09375 -2.32548,0 -4.21875,-1.3884 -4.21875,-3.09375 0,-1.70535 0.0937,-11.4509 0.0937,-13.15625 10e-6,-1.70535 1.89327,-3.09375 4.21875,-3.09375 2.32548,0 4.21875,1.3884 4.21875,3.09375 z"
       id="path5163"
       sodipodi:nodetypes="ccscccc" />
    <path
       style="fill:#333333;fill-rule:evenodd;stroke:#000000;stroke-width:1px;stroke-linecap:round;stroke-linejoin:round;stroke-opacity:1"
       d="m 498.23615,229.62438 c 0,0.94582 3.59494,0.80646 3.59494,-0.22468 l 0,-3.03323 c 0,-0.75061 0.49444,-1.48956 1.46044,-1.3481 l 26.84971,3.93196 c 1.15907,0.2005 1.81804,-3.51841 0.56171,-3.70728 l -26.288,-4.15665 c -3.7142,-0.58729 -6.36211,1.57212 -6.29114,4.26899 l 0.11234,4.26899 z"
       id="path5168"
       sodipodi:nodetypes="ccssccssc" />
    <path
       style="fill:#333333;fill-opacity:1;fill-rule:evenodd;stroke:#000000;stroke-width:1;stroke-linecap:round;stroke-linejoin:round;stroke-miterlimit:4;stroke-opacity:1;stroke-dasharray:none;stroke-dashoffset:0"
       d="m 284.09375,431.6875 -41.9375,1.4375 c -1.10735,0.038 -2,0.98575 -2,2.09375 l 0,2.53125 -3.1875,0.0625 c -1.10751,0.0244 -2,0.92324 -2,2.03125 l 0,12.84375 c 0,1.108 0.8925,1.99312 2,1.96875 l 3.1875,-0.0625 0,1.5 4.71875,3.1875 39.21875,-1.34375 c 1.10735,-0.038 2.00001,-0.95451 2,-2.0625 l 0,-22.25 c 0,-1.108 -0.89266,-1.97547 -2,-1.9375 z"
       id="rect5170" />
    <path
       style="fill:#333333;fill-opacity:1;fill-rule:evenodd;stroke:#000000;stroke-width:1;stroke-linecap:round;stroke-linejoin:round;stroke-miterlimit:4;stroke-opacity:1;stroke-dasharray:none;stroke-dashoffset:0"
       d="m 505.125,421.71875 c -1.108,0 -2,0.892 -2,2 l 0,18.40625 4.40625,5.375 36.6875,0 c 1.108,0 2.00001,-0.89201 2,-2 l 0,-2.40625 3.34375,0 c 1.108,0 2.00001,-0.89201 2,-2 l 0,-12.65625 c 0,-1.108 -0.89199,-2 -2,-2 l -3.34375,0 0,-2.71875 c 0,-1.108 -0.89199,-2 -2,-2 l -39.09375,0 z"
       id="rect5180" />
    <path
       style="fill:#333333;fill-opacity:1;fill-rule:evenodd;stroke:#000000;stroke-width:1;stroke-linecap:round;stroke-linejoin:round;stroke-miterlimit:4;stroke-opacity:1;stroke-dasharray:none;stroke-dashoffset:0"
       d="m 451.65625,421.71875 c -1.108,0 -2,0.892 -2,2 l 0,21.78125 c 0,1.108 0.892,1.99999 2,2 l 34.46875,0 6.625,-5.4375 0,-18.34375 c 0,-1.108 -0.89199,-2 -2,-2 l -39.09375,0 z"
       id="rect5184" />
    <path
       style="fill:#333333;fill-opacity:1;fill-rule:evenodd;stroke:#000000;stroke-width:1;stroke-linecap:round;stroke-linejoin:round;stroke-miterlimit:4;stroke-opacity:1;stroke-dasharray:none;stroke-dashoffset:0"
       d="m 530.13881,481.64463 c -0.9709,-0.53388 -2.18232,-0.18204 -2.7162,0.78886 l -2.24355,4.08008 c -0.53387,0.97091 -0.18203,2.18231 0.78886,2.7162 l 0.27383,0.15057 0.46678,-0.84887 1.53346,0.84321 -0.46679,0.84888 1.56085,0.85826 0.46677,-0.84887 1.56085,0.85827 -0.46679,0.84888 1.56085,0.85827 0.46678,-0.84888 1.53345,0.84321 -0.46677,0.84888 1.58822,0.87333 0.46678,-0.84888 1.53346,0.84321 -0.46679,0.84888 1.56085,0.85827 0.46677,-0.84887 1.56085,0.85826 -0.46679,0.84889 0.27384,0.15057 c 0.9709,0.53388 2.18231,0.18203 2.7162,-0.78886 l 2.24355,-4.08008 c 0.53387,-0.97091 0.18202,-2.18233 -0.78886,-2.7162 l -0.27383,-0.15057 -0.45172,0.8215 -1.56084,-0.85828 0.45172,-0.8215 -1.56084,-0.85826 -0.45172,0.82149 -1.53346,-0.84321 0.45173,-0.8215 -1.58823,-0.87332 -0.45172,0.82149 -1.53346,-0.84322 0.45172,-0.82149 -1.56084,-0.85827 -0.45172,0.8215 -1.56085,-0.85828 0.45173,-0.82149 -1.56084,-0.85827 -0.45172,0.8215 -1.53346,-0.84322 0.45173,-0.8215 -0.27384,-0.15057 z"
       id="rect5203" />
    <path
       style="fill:#333333;fill-rule:evenodd;stroke:#000000;stroke-width:1px;stroke-linecap:round;stroke-linejoin:round;stroke-opacity:1"
       d="m 174.23171,503.3733 -21.9816,59.44448 13.01543,4.8819 21.1139,-56.57277 c 0.45913,-1.23022 -1.81337,-4.33337 -3.47078,-4.8819 l -8.67695,-2.87171 z"
       id="path4120"
       sodipodi:nodetypes="cccssc" />
  </g>
  <g
     inkscape:groupmode="layer"
     id="layer3"
     inkscape:label="Text"
     transform="translate(-123.65366,-172.9375)">
    <path
       style="fill:none;fill-rule:evenodd;stroke:#000000;stroke-width:1px;stroke-linecap:round;stroke-linejoin:round;stroke-opacity:1"
       d="M 288.89413,298.04148 L 132.06375,298.04148"
       id="path5274"
       sodipodi:nodetypes="cc" />
    <path
       style="fill:none;fill-rule:evenodd;stroke:#000000;stroke-width:1px;stroke-linecap:round;stroke-linejoin:round;stroke-opacity:1"
       d="M 300.47305,269.67312 L 132.06375,269.67312"
       id="path5276"
       sodipodi:nodetypes="cc" />
    <path
       style="fill:none;fill-rule:evenodd;stroke:#000000;stroke-width:1px;stroke-linecap:round;stroke-linejoin:round;stroke-opacity:1"
       d="M 300.97291,229.14689 L 132.06375,229.14689"
       id="path5278"
       sodipodi:nodetypes="cc" />
    <path
       style="fill:none;fill-rule:evenodd;stroke:#000000;stroke-width:1px;stroke-linecap:round;stroke-linejoin:round;stroke-opacity:1"
       d="M 538.41992,225.67321 L 581.84088,225.67321"
       id="path5282" />
    <path
       style="fill:none;fill-rule:evenodd;stroke:#000000;stroke-width:1px;stroke-linecap:round;stroke-linejoin:round;stroke-opacity:1"
       d="M 521.63048,281.25204 L 581.84088,281.25204"
       id="path5284" />
    <path
       style="fill:none;fill-rule:evenodd;stroke:#000000;stroke-width:1px;stroke-linecap:round;stroke-linejoin:round;stroke-opacity:1"
       d="M 555.78831,435.25172 L 581.84088,435.25172"
       id="path5286" />
    <path
       style="fill:none;fill-rule:evenodd;stroke:#000000;stroke-width:1px;stroke-linecap:round;stroke-linejoin:round;stroke-opacity:1"
       d="M 296.42043,413.25176 L 132.06375,413.25176"
       id="path5288"
       sodipodi:nodetypes="cc" />
    <path
       style="fill:none;fill-rule:evenodd;stroke:#000000;stroke-width:1px;stroke-linecap:round;stroke-linejoin:round;stroke-opacity:1"
       d="M 230.42057,446.25169 L 132.06375,446.25169"
       id="path5290"
       sodipodi:nodetypes="cc" />
    <path
       style="fill:none;fill-rule:evenodd;stroke:#000000;stroke-width:1px;stroke-linecap:round;stroke-linejoin:round;stroke-opacity:1"
       d="M 540.73571,483.30425 L 581.84088,483.30425"
       id="path5292" />
    <path
       style="fill:none;fill-rule:evenodd;stroke:#000000;stroke-width:1px;stroke-linecap:round;stroke-linejoin:round;stroke-opacity:1"
       d="M 422.05174,368.09396 L 581.84088,368.09396"
       id="path5294" />
    <path
       style="fill:none;fill-rule:evenodd;stroke:#000000;stroke-width:1px;stroke-linecap:round;stroke-linejoin:round;stroke-opacity:1"
       d="M 421.4728,237.83108 L 581.84088,237.83108"
       id="path5296" />
    <path
       style="fill:none;fill-rule:evenodd;stroke:#000000;stroke-width:1px;stroke-linecap:round;stroke-linejoin:round;stroke-opacity:1"
       d="M 391.3676,250.56789 L 581.84088,250.56789"
       id="path5298" />
    <path
       style="fill:none;stroke:#000000;stroke-width:1px;stroke-linecap:round;stroke-linejoin:round;stroke-opacity:1"
       d="m 324.32183,242.09424 -192.25808,0"
       id="path5300"
       sodipodi:nodetypes="cc" />
    <text
       xml:space="preserve"
       style="font-size:14px;font-style:normal;font-variant:normal;font-weight:normal;font-stretch:normal;text-align:end;line-height:125%;writing-mode:lr-tb;text-anchor:end;fill:#000000;fill-opacity:1;stroke:none;font-family:Linux Libertine O;-inkscape-font-specification:Linux Libertine O"
       x="128.56"
       y="233.17889"
       id="text5302"
       sodipodi:linespacing="125%"><tspan
         sodipodi:role="line"
         id="tspan5304"
         x="128.56"
         y="233.17889">1</tspan></text>
    <text
       xml:space="preserve"
       style="font-size:14px;font-style:normal;font-variant:normal;font-weight:normal;font-stretch:normal;text-align:end;line-height:125%;writing-mode:lr-tb;text-anchor:end;fill:#000000;fill-opacity:1;stroke:none;font-family:Linux Libertine O;-inkscape-font-specification:Linux Libertine O"
       x="128.994"
       y="246.14024"
       id="text5308"
       sodipodi:linespacing="125%"><tspan
         sodipodi:role="line"
         id="tspan5310"
         x="128.994"
         y="246.14024">2</tspan></text>
    <text
       xml:space="preserve"
       style="font-size:14px;font-style:normal;font-variant:normal;font-weight:normal;font-stretch:normal;text-align:end;line-height:125%;writing-mode:lr-tb;text-anchor:end;fill:#000000;fill-opacity:1;stroke:none;font-family:Linux Libertine O;-inkscape-font-specification:Linux Libertine O"
       x="129.17601"
       y="273.64911"
       id="text5312"
       sodipodi:linespacing="125%"><tspan
         sodipodi:role="line"
         id="tspan5314"
         x="129.17601"
         y="273.64911">3</tspan></text>
    <text
       xml:space="preserve"
       style="font-size:14px;font-style:normal;font-variant:normal;font-weight:normal;font-stretch:normal;text-align:end;line-height:125%;writing-mode:lr-tb;text-anchor:end;fill:#000000;fill-opacity:1;stroke:none;font-family:Linux Libertine O;-inkscape-font-specification:Linux Libertine O"
       x="129.34401"
       y="302.07349"
       id="text5316"
       sodipodi:linespacing="125%"><tspan
         sodipodi:role="line"
         id="tspan5318"
         x="129.34401"
         y="302.07349">4</tspan></text>
    <text
       xml:space="preserve"
       style="font-size:14px;font-style:normal;font-variant:normal;font-weight:normal;font-stretch:normal;text-align:end;line-height:125%;writing-mode:lr-tb;text-anchor:end;fill:#000000;fill-opacity:1;stroke:none;font-family:Linux Libertine O;-inkscape-font-specification:Linux Libertine O"
       x="129.09201"
       y="417.22775"
       id="text5320"
       sodipodi:linespacing="125%"><tspan
         sodipodi:role="line"
         id="tspan5322"
         x="129.09201"
         y="417.22775">5</tspan></text>
    <text
       xml:space="preserve"
       style="font-size:14px;font-style:normal;font-variant:normal;font-weight:normal;font-stretch:normal;text-align:end;line-height:125%;writing-mode:lr-tb;text-anchor:end;fill:#000000;fill-opacity:1;stroke:none;font-family:Linux Libertine O;-inkscape-font-specification:Linux Libertine O"
       x="129.19"
       y="450.22769"
       id="text5324"
       sodipodi:linespacing="125%"><tspan
         sodipodi:role="line"
         id="tspan5326"
         x="129.19"
         y="450.22769">6</tspan></text>
    <text
       xml:space="preserve"
       style="font-size:14px;font-style:normal;font-variant:normal;font-weight:normal;font-stretch:normal;text-align:start;line-height:125%;writing-mode:lr-tb;text-anchor:start;fill:#000000;fill-opacity:1;stroke:none;font-family:Linux Libertine O;-inkscape-font-specification:Linux Libertine O"
       x="592.05048"
       y="229.64922"
       id="text5328"
       sodipodi:linespacing="125%"><tspan
         sodipodi:role="line"
         id="tspan5330"
         x="592.05048"
         y="229.64922">8</tspan></text>
    <text
       xml:space="preserve"
       style="font-size:14px;font-style:normal;font-variant:normal;font-weight:normal;font-stretch:normal;text-align:start;line-height:125%;writing-mode:lr-tb;text-anchor:start;fill:#000000;fill-opacity:1;stroke:none;font-family:Linux Libertine O;-inkscape-font-specification:Linux Libertine O"
       x="592.12048"
       y="241.80708"
       id="text5332"
       sodipodi:linespacing="125%"><tspan
         sodipodi:role="line"
         id="tspan5334"
         x="592.12048"
         y="241.80708">9</tspan></text>
    <text
       xml:space="preserve"
       style="font-size:14px;font-style:normal;font-variant:normal;font-weight:normal;font-stretch:normal;text-align:start;line-height:125%;writing-mode:lr-tb;text-anchor:start;fill:#000000;fill-opacity:1;stroke:none;font-family:Linux Libertine O;-inkscape-font-specification:Linux Libertine O"
       x="585.87012"
       y="254.5369"
       id="text5336"
       sodipodi:linespacing="125%"><tspan
         sodipodi:role="line"
         id="tspan5338"
         x="585.87012"
         y="254.5369">10</tspan></text>
    <text
       xml:space="preserve"
       style="font-size:14px;font-style:normal;font-variant:normal;font-weight:normal;font-stretch:normal;text-align:start;line-height:125%;writing-mode:lr-tb;text-anchor:start;fill:#000000;fill-opacity:1;stroke:none;font-family:Linux Libertine O;-inkscape-font-specification:Linux Libertine O"
       x="586.12213"
       y="285.28403"
       id="text5340"
       sodipodi:linespacing="125%"><tspan
         sodipodi:role="line"
         id="tspan5342"
         x="586.12213"
         y="285.28403">11</tspan></text>
    <text
       xml:space="preserve"
       style="font-size:14px;font-style:normal;font-variant:normal;font-weight:normal;font-stretch:normal;text-align:start;line-height:125%;writing-mode:lr-tb;text-anchor:start;fill:#000000;fill-opacity:1;stroke:none;font-family:Linux Libertine O;-inkscape-font-specification:Linux Libertine O"
       x="585.92615"
       y="372.06995"
       id="text5344"
       sodipodi:linespacing="125%"><tspan
         sodipodi:role="line"
         id="tspan5346"
         x="585.92615"
         y="372.06995">13</tspan></text>
    <text
       xml:space="preserve"
       style="font-size:14px;font-style:normal;font-variant:normal;font-weight:normal;font-stretch:normal;text-align:start;line-height:125%;writing-mode:lr-tb;text-anchor:start;fill:#000000;fill-opacity:1;stroke:none;font-family:Linux Libertine O;-inkscape-font-specification:Linux Libertine O"
       x="586.09412"
       y="439.22772"
       id="text5348"
       sodipodi:linespacing="125%"><tspan
         sodipodi:role="line"
         id="tspan5350"
         x="586.09412"
         y="439.22772">15</tspan></text>
    <text
       xml:space="preserve"
       style="font-size:14px;font-style:normal;font-variant:normal;font-weight:normal;font-stretch:normal;text-align:start;line-height:125%;writing-mode:lr-tb;text-anchor:start;fill:#000000;fill-opacity:1;stroke:none;font-family:Linux Libertine O;-inkscape-font-specification:Linux Libertine O"
       x="585.78613"
       y="487.28024"
       id="text5352"
       sodipodi:linespacing="125%"><tspan
         sodipodi:role="line"
         id="tspan5354"
         x="585.78613"
         y="487.28024">16</tspan></text>
    <path
       style="fill:none;fill-rule:evenodd;stroke:#000000;stroke-width:1px;stroke-linecap:round;stroke-linejoin:round;stroke-opacity:1"
       d="M -30.676681,343.28315 L -61.589909,343.28315"
       id="path4144"
       transform="translate(193.65366,172.9375)" />
    <text
       xml:space="preserve"
       style="font-size:14px;font-style:normal;font-variant:normal;font-weight:normal;font-stretch:normal;text-align:end;line-height:125%;writing-mode:lr-tb;text-anchor:end;fill:#000000;fill-opacity:1;stroke:none;font-family:Linux Libertine O;-inkscape-font-specification:Linux Libertine O"
       x="129.078"
       y="520.20367"
       id="text4146"
       sodipodi:linespacing="125%"><tspan
         sodipodi:role="line"
         id="tspan4148"
         x="129.078"
         y="520.20367">7</tspan></text>
    <text
       xml:space="preserve"
       style="font-size:14px;font-style:normal;font-variant:normal;font-weight:normal;font-stretch:normal;text-align:start;line-height:125%;writing-mode:lr-tb;text-anchor:start;fill:#000000;fill-opacity:1;stroke:none;font-family:Linux Libertine O;-inkscape-font-specification:Linux Libertine O"
       x="585.56213"
       y="414.86426"
       id="text4154"
       sodipodi:linespacing="125%"><tspan
         sodipodi:role="line"
         id="tspan4156"
         x="585.56213"
         y="414.86426">14</tspan></text>
    <path
       style="fill:none;fill-rule:evenodd;stroke:#000000;stroke-width:1px;stroke-linecap:round;stroke-linejoin:round;stroke-opacity:1"
       d="M 359.18885,134.75948 L 458.18723,134.75948"
       id="path4162"
       transform="translate(123.65366,172.9375)"
       sodipodi:nodetypes="cc" />
    <text
       xml:space="preserve"
       style="font-size:14px;font-style:normal;font-variant:normal;font-weight:normal;font-stretch:normal;text-align:start;line-height:125%;writing-mode:lr-tb;text-anchor:start;fill:#000000;fill-opacity:1;stroke:none;font-family:Linux Libertine O;-inkscape-font-specification:Linux Libertine O"
       x="586.02411"
       y="311.72897"
       id="text4164"
       sodipodi:linespacing="125%"><tspan
         sodipodi:role="line"
         id="tspan4166"
         x="586.02411"
         y="311.72897">12</tspan></text>
    <path
       style="display:inline;fill:none;stroke:#000000;stroke-width:1px;stroke-linecap:round;stroke-linejoin:round;stroke-opacity:1"
       d="m 203.27921,237.89476 184.90802,0"
       id="path4152"
       transform="translate(193.65366,172.9375)" />
  </g>
  <g
     inkscape:groupmode="layer"
     id="layer2"
     inkscape:label="Guide"
     style="opacity:0.52980131;display:none"
     transform="translate(-123.65366,-172.9375)"
     sodipodi:insensitive="true">
    <image
       y="2.64784"
       x="16.571428"
       id="image2412"
       height="547.28571"
       width="729.71423"
       sodipodi:absref="/home/theo/Pictures/Photos/2008/05/18/PICT2943.JPG"
       xlink:href="/home/theo/Pictures/Photos/2008/05/18/PICT2943.JPG" />
  </g>
</svg>
